<svg width="30" height="26" viewBox="0 0 30 26" fill="none" xmlns="http://www.w3.org/2000/svg">
<rect y="18" width="2" height="2" fill="black"/>
<rect y="16" width="2" height="2" fill="black"/>
<rect y="20" width="2" height="2" fill="black"/>
<rect x="8" y="14" width="2" height="2" fill="black"/>
<rect x="2" y="14" width="2" height="2" fill="black"/>
<rect x="10" y="14" width="2" height="2" fill="black"/>
<rect x="12" y="14" width="2" height="2" fill="black"/>
<rect x="4" y="14" width="2" height="2" fill="black"/>
<rect x="2" y="20" width="2" height="2" fill="black"/>
<rect x="4" y="20" width="2" height="2" fill="black"/>
<rect x="6" y="14" width="2" height="2" fill="black"/>
<rect x="6" y="20" width="2" height="2" fill="black"/>
<rect x="22" y="14" width="2" height="2" fill="black"/>
<rect x="20" y="16" width="2" height="2" fill="black"/>
<rect x="18" y="18" width="2" height="2" fill="black"/>
<rect x="16" y="20" width="2" height="2" fill="black"/>
<rect x="24" y="12" width="2" height="2" fill="black"/>
<rect x="26" y="10" width="2" height="2" fill="black"/>
<rect x="28" y="8" width="2" height="2" fill="black"/>
<rect x="28" y="6" width="2" height="2" fill="black"/>
<rect x="26" y="4" width="2" height="2" fill="black"/>
<rect x="24" y="4" width="2" height="2" fill="black"/>
<rect x="22" y="6" width="2" height="2" fill="black"/>
<rect x="22" y="8" width="2" height="2" fill="#FF9811"/>
<rect x="24" y="8" width="2" height="2" fill="#FF9811"/>
<rect x="24" y="10" width="2" height="2" fill="#FF9811"/>
<rect x="14" y="18" width="2" height="2" fill="#FF9811"/>
<rect x="14" y="16" width="2" height="2" fill="#FF9811"/>
<rect x="16" y="14" width="2" height="2" fill="#FF9811"/>
<rect x="18" y="12" width="2" height="2" fill="#FF9811"/>
<rect x="20" y="10" width="2" height="2" fill="#FF9811"/>
<rect x="16" y="16" width="2" height="2" fill="#FF9811"/>
<rect x="18" y="14" width="2" height="2" fill="#FF9811"/>
<rect x="20" y="12" width="2" height="2" fill="#FF9811"/>
<rect x="22" y="10" width="2" height="2" fill="#FF9811"/>
<rect x="16" y="18" width="2" height="2" fill="#FF9811"/>
<rect x="18" y="16" width="2" height="2" fill="#FF9811"/>
<rect x="20" y="14" width="2" height="2" fill="#FF9811"/>
<rect x="22" y="12" width="2" height="2" fill="#FF9811"/>
<rect x="12" y="18" width="2" height="2" fill="#FFDAAA"/>
<rect x="12" y="20" width="2" height="2" fill="#FFDAAA"/>
<rect x="14" y="20" width="2" height="2" fill="#FFDAAA"/>
<rect x="20" y="8" width="2" height="2" fill="black"/>
<rect x="18" y="10" width="2" height="2" fill="black"/>
<rect x="16" y="12" width="2" height="2" fill="black"/>
<rect x="14" y="14" width="2" height="2" fill="black"/>
<rect x="12" y="16" width="2" height="2" fill="black"/>
<rect x="10" y="18" width="2" height="2" fill="black"/>
<rect x="10" y="20" width="2" height="2" fill="black"/>
<rect x="10" y="22" width="2" height="2" fill="black"/>
<rect x="2" y="10" width="2" height="2" fill="#D5D5D5"/>
<rect x="2" y="24" width="2" height="2" fill="#D5D5D5"/>
<rect x="6" y="10" width="2" height="2" fill="#D5D5D5"/>
<rect x="6" y="24" width="2" height="2" fill="#D5D5D5"/>
<rect x="8" y="10" width="2" height="2" fill="#D5D5D5"/>
<rect x="8" y="24" width="2" height="2" fill="#D5D5D5"/>
<rect x="10" y="10" width="2" height="2" fill="#D5D5D5"/>
<rect x="12" y="10" width="2" height="2" fill="#D5D5D5"/>
<rect x="4" y="10" width="2" height="2" fill="#D5D5D5"/>
<rect x="4" y="24" width="2" height="2" fill="#D5D5D5"/>
<rect y="4" width="2" height="2" fill="black"/>
<rect y="2" width="2" height="2" fill="black"/>
<rect x="8" width="2" height="2" fill="black"/>
<rect x="2" width="2" height="2" fill="black"/>
<rect x="10" width="2" height="2" fill="black"/>
<rect x="16" width="2" height="2" fill="black"/>
<rect x="4" width="2" height="2" fill="black"/>
<rect x="8" y="6" width="2" height="2" fill="black"/>
<rect x="2" y="6" width="2" height="2" fill="black"/>
<rect x="10" y="6" width="2" height="2" fill="black"/>
<rect x="16" y="6" width="2" height="2" fill="black"/>
<rect x="4" y="6" width="2" height="2" fill="black"/>
<rect x="10" y="19" width="2" height="2" fill="black"/>
<rect x="12" width="2" height="2" fill="black"/>
<rect x="6" width="2" height="2" fill="black"/>
<rect x="14" width="2" height="2" fill="black"/>
<rect x="12" y="6" width="2" height="2" fill="black"/>
<rect x="6" y="6" width="2" height="2" fill="black"/>
<rect x="14" y="6" width="2" height="2" fill="black"/>
<rect x="18" y="2" width="2" height="2" fill="black"/>
<rect x="18" y="4" width="2" height="2" fill="black"/>
<rect x="12" y="22" width="2" height="2" fill="black"/>
<rect x="14" y="22" width="2" height="2" fill="black"/>
</svg>
